<svg width="1542" height="512" viewBox="0 0 1542 512" fill="none" xmlns="http://www.w3.org/2000/svg">
<path d="M1421.5 192.333H1401.58V152.5C1401.58 97.53 1356.97 52.9167 1302 52.9167C1247.03 52.9167 1202.42 97.53 1202.42 152.5V192.333H1182.5C1160.59 192.333 1142.67 210.258 1142.67 232.167V431.333C1142.67 453.242 1160.59 471.167 1182.5 471.167H1421.5C1443.41 471.167 1461.33 453.242 1461.33 431.333V232.167C1461.33 210.258 1443.41 192.333 1421.5 192.333ZM1302 371.583C1280.09 371.583 1262.17 353.658 1262.17 331.75C1262.17 309.842 1280.09 291.917 1302 291.917C1323.91 291.917 1341.83 309.842 1341.83 331.75C1341.83 353.658 1323.91 371.583 1302 371.583ZM1242.25 192.333V152.5C1242.25 119.438 1268.94 92.75 1302 92.75C1335.06 92.75 1361.75 119.438 1361.75 152.5V192.333H1242.25Z" fill="#3190FF"/>
<path d="M1405.5 176.333H1385.58V136.5C1385.58 81.53 1340.97 36.9167 1286 36.9167C1231.03 36.9167 1186.42 81.53 1186.42 136.5V176.333H1166.5C1144.59 176.333 1126.67 194.258 1126.67 216.167V415.333C1126.67 437.242 1144.59 455.167 1166.5 455.167H1405.5C1427.41 455.167 1445.33 437.242 1445.33 415.333V216.167C1445.33 194.258 1427.41 176.333 1405.5 176.333ZM1286 355.583C1264.09 355.583 1246.17 337.658 1246.17 315.75C1246.17 293.842 1264.09 275.917 1286 275.917C1307.91 275.917 1325.83 293.842 1325.83 315.75C1325.83 337.658 1307.91 355.583 1286 355.583ZM1226.25 176.333V136.5C1226.25 103.438 1252.94 76.75 1286 76.75C1319.06 76.75 1345.75 103.438 1345.75 136.5V176.333H1226.25Z" fill="black"/>
<rect x="1213" y="246" width="145" height="131" fill="black"/>
<path d="M1164.27 366H1188.41L1196.72 339.34H1235.56L1243.87 366H1268.01L1229.7 256.084H1202.66L1164.27 366ZM1215.91 277.412H1216.37L1230.23 322.125H1202.05L1215.91 277.412ZM1279.29 366H1302.29V331.342H1323.47C1346.62 331.342 1362.09 316.412 1362.09 293.789V293.637C1362.09 271.014 1346.62 256.084 1323.47 256.084H1279.29V366ZM1317.83 274.289C1331.01 274.289 1338.78 281.221 1338.78 293.713V293.865C1338.78 306.357 1331.01 313.365 1317.83 313.365H1302.29V274.289H1317.83ZM1375.72 366H1398.72V256.084H1375.72V366Z" fill="white"/>
<path d="M73.445 317.688H87.525V330.36C87.781 330.445 88.037 330.531 88.293 330.616C90.2557 331.469 92.389 332.195 94.693 332.792C97.0823 333.304 99.5997 333.56 102.245 333.56C107.024 333.56 110.736 332.621 113.381 330.744C116.026 328.781 117.349 326.179 117.349 322.936C117.349 320.035 116.24 317.688 114.021 315.896C111.888 314.104 109.2 312.525 105.957 311.16C102.8 309.795 99.301 308.429 95.461 307.064C91.7063 305.699 88.2077 303.992 84.965 301.944C81.8077 299.811 79.1197 297.165 76.901 294.008C74.7677 290.851 73.701 286.755 73.701 281.72C73.701 277.88 74.4263 274.381 75.877 271.224C77.413 267.981 79.5037 265.208 82.149 262.904C84.8797 260.6 88.1223 258.808 91.877 257.528C95.6317 256.248 99.813 255.608 104.421 255.608C109.626 255.608 114.746 256.077 119.781 257.016C124.816 257.955 128.826 259.235 131.813 260.856V286.84H117.733V272.632C117.477 272.632 117.221 272.589 116.965 272.504C115.088 271.992 113.04 271.608 110.821 271.352C108.688 271.011 106.554 270.84 104.421 270.84C100.325 270.84 97.0823 271.651 94.693 273.272C92.389 274.893 91.237 277.069 91.237 279.8C91.237 282.616 92.3037 284.92 94.437 286.712C96.6557 288.504 99.3437 290.125 102.501 291.576C105.744 293.027 109.242 294.477 112.997 295.928C116.837 297.379 120.336 299.171 123.493 301.304C126.736 303.352 129.424 305.955 131.557 309.112C133.776 312.269 134.885 316.237 134.885 321.016C134.885 325.624 134.032 329.677 132.325 333.176C130.618 336.589 128.229 339.491 125.157 341.88C122.085 344.184 118.458 345.891 114.277 347C110.096 348.195 105.573 348.792 100.709 348.792C97.4663 348.792 94.437 348.536 91.621 348.024C88.8903 347.512 86.3303 346.872 83.941 346.104C81.637 345.336 79.589 344.525 77.797 343.672C76.005 342.819 74.5543 342.093 73.445 341.496V317.688ZM210.227 340.216C209.118 341.24 207.667 342.264 205.875 343.288C204.168 344.227 202.12 345.123 199.731 345.976C197.427 346.829 194.867 347.512 192.051 348.024C189.235 348.536 186.248 348.792 183.091 348.792C177.63 348.792 172.723 348.024 168.371 346.488C164.104 344.952 160.478 342.733 157.491 339.832C154.504 336.845 152.2 333.304 150.579 329.208C149.043 325.027 148.275 320.291 148.275 315C148.275 309.368 149.171 304.461 150.963 300.28C152.755 296.013 155.187 292.472 158.259 289.656C161.416 286.84 165.086 284.749 169.267 283.384C173.448 281.933 177.971 281.208 182.835 281.208C186.078 281.208 189.406 281.635 192.819 282.488C196.318 283.341 199.518 284.835 202.419 286.968C205.32 289.016 207.667 291.789 209.459 295.288C211.336 298.787 212.275 303.224 212.275 308.6C212.275 312.269 211.848 316.237 210.995 320.504H164.915C165 323.235 165.555 325.539 166.579 327.416C167.688 329.293 169.096 330.829 170.803 332.024C172.595 333.219 174.6 334.115 176.819 334.712C179.123 335.224 181.555 335.48 184.115 335.48C189.235 335.48 193.416 334.883 196.659 333.688C199.987 332.493 202.675 331.043 204.723 329.336L210.227 340.216ZM182.579 294.52C180.36 294.52 178.27 294.819 176.307 295.416C174.344 296.013 172.552 296.909 170.931 298.104C169.395 299.213 168.115 300.621 167.091 302.328C166.067 304.035 165.47 305.955 165.299 308.088H196.787C196.787 303.907 195.592 300.621 193.203 298.232C190.899 295.757 187.358 294.52 182.579 294.52ZM288.513 340.856C285.014 343.501 280.918 345.507 276.225 346.872C271.532 348.152 266.625 348.792 261.505 348.792C255.958 348.792 251.009 347.981 246.657 346.36C242.39 344.739 238.764 342.477 235.777 339.576C232.876 336.589 230.657 333.005 229.121 328.824C227.585 324.643 226.817 320.035 226.817 315C226.817 309.624 227.713 304.845 229.505 300.664C231.297 296.483 233.772 292.941 236.929 290.04C240.172 287.139 243.969 284.963 248.321 283.512C252.673 281.976 257.409 281.208 262.529 281.208C267.308 281.208 271.788 281.763 275.969 282.872C280.15 283.981 283.35 285.048 285.569 286.072V308.6H271.489V296.824C268.844 296.227 266.198 295.928 263.553 295.928C261.164 295.928 258.774 296.312 256.385 297.08C254.081 297.763 251.99 298.915 250.113 300.536C248.321 302.072 246.828 304.035 245.633 306.424C244.524 308.813 243.969 311.672 243.969 315C243.969 317.731 244.438 320.248 245.377 322.552C246.316 324.856 247.638 326.861 249.345 328.568C251.052 330.275 253.142 331.64 255.617 332.664C258.177 333.603 260.993 334.072 264.065 334.072C268.929 334.072 272.897 333.389 275.969 332.024C279.126 330.659 281.473 329.464 283.009 328.44L288.513 340.856ZM300.367 332.92H316.239V297.08H300.367V283H329.167L331.087 291.448H331.599C333.988 288.632 336.719 286.285 339.791 284.408C342.863 282.531 346.447 281.592 350.543 281.592C355.663 281.592 359.674 283.469 362.575 287.224C365.562 290.979 367.055 297.251 367.055 306.04H352.079C352.079 302.968 351.61 300.749 350.671 299.384C349.818 297.933 348.41 297.208 346.447 297.208C343.034 297.208 340.26 298.061 338.127 299.768C336.079 301.475 334.33 303.437 332.879 305.656V332.92H360.655V347H300.367V332.92ZM440.477 340.216C439.368 341.24 437.917 342.264 436.125 343.288C434.418 344.227 432.37 345.123 429.981 345.976C427.677 346.829 425.117 347.512 422.301 348.024C419.485 348.536 416.498 348.792 413.341 348.792C407.88 348.792 402.973 348.024 398.621 346.488C394.354 344.952 390.728 342.733 387.741 339.832C384.754 336.845 382.45 333.304 380.829 329.208C379.293 325.027 378.525 320.291 378.525 315C378.525 309.368 379.421 304.461 381.213 300.28C383.005 296.013 385.437 292.472 388.509 289.656C391.666 286.84 395.336 284.749 399.517 283.384C403.698 281.933 408.221 281.208 413.085 281.208C416.328 281.208 419.656 281.635 423.069 282.488C426.568 283.341 429.768 284.835 432.669 286.968C435.57 289.016 437.917 291.789 439.709 295.288C441.586 298.787 442.525 303.224 442.525 308.6C442.525 312.269 442.098 316.237 441.245 320.504H395.165C395.25 323.235 395.805 325.539 396.829 327.416C397.938 329.293 399.346 330.829 401.053 332.024C402.845 333.219 404.85 334.115 407.069 334.712C409.373 335.224 411.805 335.48 414.365 335.48C419.485 335.48 423.666 334.883 426.909 333.688C430.237 332.493 432.925 331.043 434.973 329.336L440.477 340.216ZM412.829 294.52C410.61 294.52 408.52 294.819 406.557 295.416C404.594 296.013 402.802 296.909 401.181 298.104C399.645 299.213 398.365 300.621 397.341 302.328C396.317 304.035 395.72 305.955 395.549 308.088H427.037C427.037 303.907 425.842 300.621 423.453 298.232C421.149 295.757 417.608 294.52 412.829 294.52ZM463.723 297.08H451.051V283H463.723V268.408L480.363 263.672V283H513.899V297.08H480.363V315.384C480.363 321.955 481.6 326.733 484.075 329.72C486.55 332.621 490.006 334.072 494.443 334.072C496.747 334.072 498.838 333.816 500.715 333.304C502.592 332.707 504.256 331.981 505.707 331.128C507.243 330.275 508.608 329.336 509.803 328.312C511.083 327.288 512.235 326.349 513.259 325.496L520.939 337.016C519.488 338.723 517.654 340.301 515.435 341.752C513.302 343.117 510.955 344.355 508.395 345.464C505.92 346.488 503.318 347.299 500.587 347.896C497.856 348.493 495.168 348.792 492.523 348.792C482.966 348.792 475.755 346.147 470.891 340.856C466.112 335.48 463.723 326.989 463.723 315.384V297.08ZM653.831 329.336C653.831 327.629 652.764 326.264 650.631 325.24C648.583 324.216 646.023 323.277 642.951 322.424C639.879 321.571 636.508 320.717 632.839 319.864C629.17 318.925 625.799 317.688 622.727 316.152C619.655 314.531 617.052 312.525 614.919 310.136C612.871 307.661 611.847 304.504 611.847 300.664C611.847 297.507 612.53 294.733 613.895 292.344C615.346 289.955 617.266 287.949 619.655 286.328C622.13 284.621 625.031 283.341 628.359 282.488C631.772 281.635 635.442 281.208 639.367 281.208C643.548 281.208 647.218 281.507 650.375 282.104C653.532 282.701 656.263 283.427 658.567 284.28C660.956 285.133 662.962 286.115 664.583 287.224C666.29 288.248 667.74 289.187 668.935 290.04L661.895 301.432C660.615 300.664 659.122 299.896 657.415 299.128C655.794 298.275 654.044 297.507 652.167 296.824C650.375 296.141 648.455 295.587 646.407 295.16C644.444 294.733 642.482 294.52 640.519 294.52C636.935 294.52 634.034 294.989 631.815 295.928C629.596 296.867 628.487 298.317 628.487 300.28C628.487 301.816 629.511 303.053 631.559 303.992C633.692 304.931 636.295 305.827 639.367 306.68C642.439 307.448 645.81 308.301 649.479 309.24C653.148 310.179 656.519 311.416 659.591 312.952C662.663 314.403 665.223 316.323 667.271 318.712C669.404 321.101 670.471 324.173 670.471 327.928C670.471 334.413 668.082 339.533 663.303 343.288C658.61 346.957 651.612 348.792 642.311 348.792C634.972 348.792 628.615 347.725 623.239 345.592C617.948 343.373 613.682 340.813 610.439 337.912L618.119 325.88C619.228 326.819 620.679 327.885 622.471 329.08C624.348 330.189 626.439 331.213 628.743 332.152C631.047 333.091 633.479 333.901 636.039 334.584C638.684 335.181 641.287 335.48 643.847 335.48C646.578 335.48 648.924 335.011 650.887 334.072C652.85 333.133 653.831 331.555 653.831 329.336ZM747.477 340.216C746.368 341.24 744.917 342.264 743.125 343.288C741.418 344.227 739.37 345.123 736.981 345.976C734.677 346.829 732.117 347.512 729.301 348.024C726.485 348.536 723.498 348.792 720.341 348.792C714.88 348.792 709.973 348.024 705.621 346.488C701.354 344.952 697.728 342.733 694.741 339.832C691.754 336.845 689.45 333.304 687.829 329.208C686.293 325.027 685.525 320.291 685.525 315C685.525 309.368 686.421 304.461 688.213 300.28C690.005 296.013 692.437 292.472 695.509 289.656C698.666 286.84 702.336 284.749 706.517 283.384C710.698 281.933 715.221 281.208 720.085 281.208C723.328 281.208 726.656 281.635 730.069 282.488C733.568 283.341 736.768 284.835 739.669 286.968C742.57 289.016 744.917 291.789 746.709 295.288C748.586 298.787 749.525 303.224 749.525 308.6C749.525 312.269 749.098 316.237 748.245 320.504H702.165C702.25 323.235 702.805 325.539 703.829 327.416C704.938 329.293 706.346 330.829 708.053 332.024C709.845 333.219 711.85 334.115 714.069 334.712C716.373 335.224 718.805 335.48 721.365 335.48C726.485 335.48 730.666 334.883 733.909 333.688C737.237 332.493 739.925 331.043 741.973 329.336L747.477 340.216ZM719.829 294.52C717.61 294.52 715.52 294.819 713.557 295.416C711.594 296.013 709.802 296.909 708.181 298.104C706.645 299.213 705.365 300.621 704.341 302.328C703.317 304.035 702.72 305.955 702.549 308.088H734.037C734.037 303.907 732.842 300.621 730.453 298.232C728.149 295.757 724.608 294.52 719.829 294.52ZM760.867 332.92H776.739V297.08H760.867V283H789.667L791.587 291.448H792.099C794.488 288.632 797.219 286.285 800.291 284.408C803.363 282.531 806.947 281.592 811.043 281.592C816.163 281.592 820.174 283.469 823.075 287.224C826.062 290.979 827.555 297.251 827.555 306.04H812.579C812.579 302.968 812.11 300.749 811.171 299.384C810.318 297.933 808.91 297.208 806.947 297.208C803.534 297.208 800.76 298.061 798.627 299.768C796.579 301.475 794.83 303.437 793.379 305.656V332.92H821.155V347H760.867V332.92ZM872.689 327.672H873.585L887.921 283H905.841L881.393 347H863.601L836.081 283H855.409L872.689 327.672ZM977.727 340.216C976.618 341.24 975.167 342.264 973.375 343.288C971.668 344.227 969.62 345.123 967.231 345.976C964.927 346.829 962.367 347.512 959.551 348.024C956.735 348.536 953.748 348.792 950.591 348.792C945.13 348.792 940.223 348.024 935.871 346.488C931.604 344.952 927.978 342.733 924.991 339.832C922.004 336.845 919.7 333.304 918.079 329.208C916.543 325.027 915.775 320.291 915.775 315C915.775 309.368 916.671 304.461 918.463 300.28C920.255 296.013 922.687 292.472 925.759 289.656C928.916 286.84 932.586 284.749 936.767 283.384C940.948 281.933 945.471 281.208 950.335 281.208C953.578 281.208 956.906 281.635 960.319 282.488C963.818 283.341 967.018 284.835 969.919 286.968C972.82 289.016 975.167 291.789 976.959 295.288C978.836 298.787 979.775 303.224 979.775 308.6C979.775 312.269 979.348 316.237 978.495 320.504H932.415C932.5 323.235 933.055 325.539 934.079 327.416C935.188 329.293 936.596 330.829 938.303 332.024C940.095 333.219 942.1 334.115 944.319 334.712C946.623 335.224 949.055 335.48 951.615 335.48C956.735 335.48 960.916 334.883 964.159 333.688C967.487 332.493 970.175 331.043 972.223 329.336L977.727 340.216ZM950.079 294.52C947.86 294.52 945.77 294.819 943.807 295.416C941.844 296.013 940.052 296.909 938.431 298.104C936.895 299.213 935.615 300.621 934.591 302.328C933.567 304.035 932.97 305.955 932.799 308.088H964.287C964.287 303.907 963.092 300.621 960.703 298.232C958.399 295.757 954.858 294.52 950.079 294.52ZM991.117 332.92H1006.99V297.08H991.117V283H1019.92L1021.84 291.448H1022.35C1024.74 288.632 1027.47 286.285 1030.54 284.408C1033.61 282.531 1037.2 281.592 1041.29 281.592C1046.41 281.592 1050.42 283.469 1053.33 287.224C1056.31 290.979 1057.81 297.251 1057.81 306.04H1042.83C1042.83 302.968 1042.36 300.749 1041.42 299.384C1040.57 297.933 1039.16 297.208 1037.2 297.208C1033.78 297.208 1031.01 298.061 1028.88 299.768C1026.83 301.475 1025.08 303.437 1023.63 305.656V332.92H1051.41V347H991.117V332.92Z" fill="black"/>
<path d="M824.809 200.8H832.261V209.44H832.405C832.909 208.864 833.581 208.408 834.421 208.072C835.285 207.736 836.341 207.568 837.589 207.568C839.965 207.568 841.861 208.312 843.277 209.8C844.717 211.288 845.437 213.532 845.437 216.532C845.437 218.14 845.197 219.568 844.717 220.816C844.237 222.04 843.553 223.072 842.665 223.912C841.801 224.728 840.733 225.352 839.461 225.784C838.213 226.216 836.797 226.432 835.213 226.432C833.341 226.432 831.769 226.216 830.497 225.784C829.249 225.352 828.277 224.92 827.581 224.488V204.76H824.809V200.8ZM836.293 211.528C835.957 211.528 835.585 211.588 835.177 211.708C834.769 211.828 834.373 211.996 833.989 212.212C833.629 212.428 833.281 212.704 832.945 213.04C832.633 213.352 832.405 213.712 832.261 214.12V221.608C832.645 221.8 833.173 221.992 833.845 222.184C834.517 222.376 835.237 222.472 836.005 222.472C836.629 222.472 837.217 222.364 837.769 222.148C838.345 221.908 838.837 221.548 839.245 221.068C839.677 220.588 840.013 219.988 840.253 219.268C840.493 218.548 840.613 217.684 840.613 216.676C840.613 214.972 840.241 213.688 839.497 212.824C838.777 211.96 837.709 211.528 836.293 211.528ZM857.699 220.924H859.067L862.559 208H867.383L862.271 224.236C861.815 225.58 861.371 226.804 860.939 227.908C860.507 229.036 860.003 230.008 859.427 230.824C858.851 231.64 858.167 232.264 857.375 232.696C856.607 233.152 855.659 233.38 854.531 233.38C853.979 233.38 853.451 233.308 852.947 233.164C852.467 233.02 852.023 232.84 851.615 232.624C851.207 232.432 850.847 232.216 850.535 231.976C850.223 231.76 849.971 231.556 849.779 231.364L852.191 228.16C852.503 228.424 852.875 228.664 853.307 228.88C853.739 229.12 854.147 229.24 854.531 229.24C855.251 229.24 855.815 228.988 856.223 228.484C856.655 227.98 857.063 227.152 857.447 226H854.891L847.403 208H852.479L857.699 220.924ZM890.035 200.8H897.667V215.164H898.747L904.651 208H910.159L902.887 216.208L907.603 222.04H910.951V226H905.119L898.927 218.548H897.667V226H892.987V204.76H890.035V200.8ZM914.753 200.8H922.421V217.432C922.421 219.28 922.649 220.564 923.105 221.284C923.561 222.004 924.293 222.364 925.301 222.364C926.045 222.364 926.657 222.292 927.137 222.148C927.617 221.98 928.097 221.752 928.577 221.464L930.341 224.704C929.933 224.968 929.525 225.22 929.117 225.46C928.709 225.676 928.277 225.856 927.821 226C927.365 226.168 926.861 226.288 926.309 226.36C925.781 226.456 925.181 226.504 924.509 226.504C922.253 226.504 920.561 225.928 919.433 224.776C918.305 223.624 917.741 221.992 917.741 219.88V204.76H914.753V200.8ZM952.431 224.092C952.119 224.38 951.711 224.668 951.207 224.956C950.727 225.22 950.151 225.472 949.479 225.712C948.831 225.952 948.111 226.144 947.319 226.288C946.527 226.432 945.687 226.504 944.799 226.504C943.263 226.504 941.883 226.288 940.659 225.856C939.459 225.424 938.439 224.8 937.599 223.984C936.759 223.144 936.111 222.148 935.655 220.996C935.223 219.82 935.007 218.488 935.007 217C935.007 215.416 935.259 214.036 935.763 212.86C936.267 211.66 936.951 210.664 937.815 209.872C938.703 209.08 939.735 208.492 940.911 208.108C942.087 207.7 943.359 207.496 944.727 207.496C945.639 207.496 946.575 207.616 947.535 207.856C948.519 208.096 949.419 208.516 950.235 209.116C951.051 209.692 951.711 210.472 952.215 211.456C952.743 212.44 953.007 213.688 953.007 215.2C953.007 216.232 952.887 217.348 952.647 218.548H939.687C939.711 219.316 939.867 219.964 940.155 220.492C940.467 221.02 940.863 221.452 941.343 221.788C941.847 222.124 942.411 222.376 943.035 222.544C943.683 222.688 944.367 222.76 945.087 222.76C946.527 222.76 947.703 222.592 948.615 222.256C949.551 221.92 950.307 221.512 950.883 221.032L952.431 224.092ZM944.655 211.24C944.031 211.24 943.443 211.324 942.891 211.492C942.339 211.66 941.835 211.912 941.379 212.248C940.947 212.56 940.587 212.956 940.299 213.436C940.011 213.916 939.843 214.456 939.795 215.056H948.651C948.651 213.88 948.315 212.956 947.643 212.284C946.995 211.588 945.999 211.24 944.655 211.24ZM966.061 220.564H966.313L970.345 208H975.385L968.509 226H963.505L955.765 208H961.201L966.061 220.564ZM996.035 224.272C995.051 225.016 993.899 225.58 992.579 225.964C991.259 226.324 989.879 226.504 988.439 226.504C986.879 226.504 985.487 226.276 984.263 225.82C983.063 225.364 982.043 224.728 981.203 223.912C980.387 223.072 979.763 222.064 979.331 220.888C978.899 219.712 978.683 218.416 978.683 217C978.683 215.488 978.935 214.144 979.439 212.968C979.943 211.792 980.639 210.796 981.527 209.98C982.439 209.164 983.507 208.552 984.731 208.144C985.955 207.712 987.287 207.496 988.727 207.496C990.071 207.496 991.331 207.652 992.507 207.964C993.683 208.276 994.583 208.576 995.207 208.864V215.2H991.247V211.888C990.503 211.72 989.759 211.636 989.015 211.636C988.343 211.636 987.671 211.744 986.999 211.96C986.351 212.152 985.763 212.476 985.235 212.932C984.731 213.364 984.311 213.916 983.975 214.588C983.663 215.26 983.507 216.064 983.507 217C983.507 217.768 983.639 218.476 983.903 219.124C984.167 219.772 984.539 220.336 985.019 220.816C985.499 221.296 986.087 221.68 986.783 221.968C987.503 222.232 988.295 222.364 989.159 222.364C990.527 222.364 991.643 222.172 992.507 221.788C993.395 221.404 994.055 221.068 994.487 220.78L996.035 224.272ZM1012.44 221.032C1012.44 220.552 1012.14 220.168 1011.54 219.88C1010.96 219.592 1010.24 219.328 1009.38 219.088C1008.51 218.848 1007.56 218.608 1006.53 218.368C1005.5 218.104 1004.55 217.756 1003.69 217.324C1002.82 216.868 1002.09 216.304 1001.49 215.632C1000.92 214.936 1000.63 214.048 1000.63 212.968C1000.63 212.08 1000.82 211.3 1001.2 210.628C1001.61 209.956 1002.15 209.392 1002.82 208.936C1003.52 208.456 1004.34 208.096 1005.27 207.856C1006.23 207.616 1007.26 207.496 1008.37 207.496C1009.54 207.496 1010.58 207.58 1011.46 207.748C1012.35 207.916 1013.12 208.12 1013.77 208.36C1014.44 208.6 1015 208.876 1015.46 209.188C1015.94 209.476 1016.35 209.74 1016.68 209.98L1014.7 213.184C1014.34 212.968 1013.92 212.752 1013.44 212.536C1012.99 212.296 1012.5 212.08 1011.97 211.888C1011.46 211.696 1010.92 211.54 1010.35 211.42C1009.8 211.3 1009.24 211.24 1008.69 211.24C1007.68 211.24 1006.87 211.372 1006.24 211.636C1005.62 211.9 1005.31 212.308 1005.31 212.86C1005.31 213.292 1005.6 213.64 1006.17 213.904C1006.77 214.168 1007.5 214.42 1008.37 214.66C1009.23 214.876 1010.18 215.116 1011.21 215.38C1012.24 215.644 1013.19 215.992 1014.06 216.424C1014.92 216.832 1015.64 217.372 1016.22 218.044C1016.82 218.716 1017.12 219.58 1017.12 220.636C1017.12 222.46 1016.44 223.9 1015.1 224.956C1013.78 225.988 1011.81 226.504 1009.2 226.504C1007.13 226.504 1005.34 226.204 1003.83 225.604C1002.34 224.98 1001.14 224.26 1000.23 223.444L1002.39 220.06C1002.7 220.324 1003.11 220.624 1003.62 220.96C1004.14 221.272 1004.73 221.56 1005.38 221.824C1006.03 222.088 1006.71 222.316 1007.43 222.508C1008.18 222.676 1008.91 222.76 1009.63 222.76C1010.4 222.76 1011.06 222.628 1011.61 222.364C1012.16 222.1 1012.44 221.656 1012.44 221.032ZM1020.81 217C1020.81 215.488 1021.04 214.144 1021.49 212.968C1021.95 211.792 1022.6 210.796 1023.44 209.98C1024.28 209.164 1025.27 208.552 1026.43 208.144C1027.6 207.712 1028.91 207.496 1030.35 207.496C1031.86 207.496 1033.21 207.724 1034.38 208.18C1035.58 208.636 1036.59 209.284 1037.41 210.124C1038.22 210.94 1038.83 211.936 1039.24 213.112C1039.67 214.288 1039.89 215.584 1039.89 217C1039.89 218.512 1039.66 219.856 1039.21 221.032C1038.75 222.208 1038.1 223.204 1037.26 224.02C1036.42 224.836 1035.41 225.46 1034.24 225.892C1033.09 226.3 1031.79 226.504 1030.35 226.504C1028.84 226.504 1027.48 226.276 1026.28 225.82C1025.11 225.364 1024.11 224.728 1023.29 223.912C1022.48 223.072 1021.85 222.064 1021.42 220.888C1021.01 219.712 1020.81 218.416 1020.81 217ZM1025.63 217C1025.63 217.792 1025.74 218.524 1025.96 219.196C1026.17 219.868 1026.49 220.456 1026.89 220.96C1027.3 221.464 1027.79 221.86 1028.37 222.148C1028.95 222.412 1029.61 222.544 1030.35 222.544C1031.74 222.544 1032.87 222.1 1033.73 221.212C1034.62 220.324 1035.07 218.92 1035.07 217C1035.07 215.344 1034.66 214.012 1033.84 213.004C1033.03 211.972 1031.86 211.456 1030.35 211.456C1029.68 211.456 1029.05 211.564 1028.48 211.78C1027.9 211.972 1027.4 212.296 1026.97 212.752C1026.56 213.208 1026.23 213.784 1025.99 214.48C1025.75 215.176 1025.63 216.016 1025.63 217ZM1042.4 217C1042.4 215.488 1042.62 214.144 1043.08 212.968C1043.54 211.792 1044.18 210.796 1045.02 209.98C1045.86 209.164 1046.86 208.552 1048.01 208.144C1049.19 207.712 1050.5 207.496 1051.94 207.496C1053.45 207.496 1054.79 207.724 1055.97 208.18C1057.17 208.636 1058.18 209.284 1058.99 210.124C1059.81 210.94 1060.42 211.936 1060.83 213.112C1061.26 214.288 1061.48 215.584 1061.48 217C1061.48 218.512 1061.25 219.856 1060.79 221.032C1060.34 222.208 1059.69 223.204 1058.85 224.02C1058.01 224.836 1057 225.46 1055.82 225.892C1054.67 226.3 1053.38 226.504 1051.94 226.504C1050.42 226.504 1049.07 226.276 1047.87 225.82C1046.69 225.364 1045.7 224.728 1044.88 223.912C1044.06 223.072 1043.44 222.064 1043.01 220.888C1042.6 219.712 1042.4 218.416 1042.4 217ZM1047.22 217C1047.22 217.792 1047.33 218.524 1047.54 219.196C1047.76 219.868 1048.07 220.456 1048.48 220.96C1048.89 221.464 1049.38 221.86 1049.96 222.148C1050.53 222.412 1051.19 222.544 1051.94 222.544C1053.33 222.544 1054.46 222.1 1055.32 221.212C1056.21 220.324 1056.65 218.92 1056.65 217C1056.65 215.344 1056.24 214.012 1055.43 213.004C1054.61 211.972 1053.45 211.456 1051.94 211.456C1051.26 211.456 1050.64 211.564 1050.06 211.78C1049.49 211.972 1048.98 212.296 1048.55 212.752C1048.14 213.208 1047.82 213.784 1047.58 214.48C1047.34 215.176 1047.22 216.016 1047.22 217Z" fill="#3190FF"/>
</svg>
